<svg id="e782a4f6-5a47-4573-84e9-1b851c24b9ce" data-name="Calque 1" xmlns="http://www.w3.org/2000/svg" viewBox="0 0 21.51 21.51"><defs><style>.a322c957-f20f-48a9-892b-22c4f7ec6cb3{fill:#fff;}</style></defs><title>picto2</title><circle cx="10.76" cy="10.76" r="10.76"/><path class="a322c957-f20f-48a9-892b-22c4f7ec6cb3" d="M11.14,17.4c-1.41,0-2.83,0-4.24,0a2,2,0,0,1-2-1.64,2.28,2.28,0,0,1,0-.44V6.83A2.05,2.05,0,0,1,6.9,4.75h8.49a2,2,0,0,1,2.08,2.09v8.47a2.06,2.06,0,0,1-2.08,2.09C14,17.41,12.56,17.4,11.14,17.4Zm0-11.85H7A1.27,1.27,0,0,0,5.62,6.9v8.37A1.25,1.25,0,0,0,7,16.6h8.39a1.25,1.25,0,0,0,1.33-1.33V6.88a1.25,1.25,0,0,0-1.33-1.33Z" transform="translate(-0.37 -0.34)"/><path class="a322c957-f20f-48a9-892b-22c4f7ec6cb3" d="M13.81,11.08a2.67,2.67,0,1,1-2.66-2.67A2.67,2.67,0,0,1,13.81,11.08Zm-.8,0a1.87,1.87,0,1,0-1.86,1.86A1.87,1.87,0,0,0,13,11.08Z" transform="translate(-0.37 -0.34)"/><path class="a322c957-f20f-48a9-892b-22c4f7ec6cb3" d="M15,6.59A.71.71,0,1,1,15,8a.72.72,0,0,1-.7-.7A.71.71,0,0,1,15,6.59Z" transform="translate(-0.37 -0.34)"/></svg>