<svg id="ba4469f1-84ab-4703-9072-f11affabdcc0" data-name="Calque 1" xmlns="http://www.w3.org/2000/svg" xmlns:xlink="http://www.w3.org/1999/xlink" viewBox="0 0 21.51 21.51"><defs><style>.a9976f8c-b5fc-43e2-95a3-016d313095ca,.b41bdcf2-fccd-434a-87d1-22747ffdcb81,.ba5d158e-3bcf-4e15-a00b-74f1893b6520{fill:none;}.a9ed2dab-3725-44b8-8e20-3648c2d70600{clip-path:url(#a2613bc9-4ca1-4be1-8bd2-3769b7f03332);}.a5958e65-c866-46ba-b168-ac03028dc3c2{clip-path:url(#b8b8a8ee-1a61-4f70-a0f9-94e907f36c3c);}.a9976f8c-b5fc-43e2-95a3-016d313095ca,.b41bdcf2-fccd-434a-87d1-22747ffdcb81{stroke:#fff;stroke-miterlimit:10;stroke-width:0.67px;}.a9976f8c-b5fc-43e2-95a3-016d313095ca{stroke-linecap:round;}</style><clipPath id="a2613bc9-4ca1-4be1-8bd2-3769b7f03332" transform="translate(-0.37 -0.34)"><rect class="ba5d158e-3bcf-4e15-a00b-74f1893b6520" x="4.53" y="4.89" width="12.8" height="12.8"/></clipPath><clipPath id="b8b8a8ee-1a61-4f70-a0f9-94e907f36c3c" transform="translate(-0.37 -0.34)"><rect class="ba5d158e-3bcf-4e15-a00b-74f1893b6520" x="3.52" y="3.88" width="14.81" height="14.81"/></clipPath></defs><title>picto1</title><g class="a9ed2dab-3725-44b8-8e20-3648c2d70600"><g class="a5958e65-c866-46ba-b168-ac03028dc3c2"><path d="M3.73,18.88V4.09h14.8V18.88Zm2.53-3.95H16V10.4l-2.75,1.91c-1.62,1.12-2.56,1.12-4.18,0L6.26,10.37ZM6,8.05c.3.53.42,1,.72,1.24,1.07.82,2.22,1.55,3.32,2.33a1.72,1.72,0,0,0,2.21,0c1.07-.77,2.19-1.47,3.24-2.28.31-.24.44-.72.75-1.26Z" transform="translate(-0.37 -0.34)"/></g></g><g class="a9ed2dab-3725-44b8-8e20-3648c2d70600"><g class="a5958e65-c866-46ba-b168-ac03028dc3c2"><path d="M3.73,18.88V4.09h14.8V18.88Zm2.53-3.95H16V10.4l-2.75,1.91c-1.62,1.12-2.56,1.12-4.18,0L6.26,10.37ZM6,8.05c.3.53.42,1,.72,1.24,1.07.82,2.22,1.55,3.32,2.33a1.72,1.72,0,0,0,2.21,0c1.07-.77,2.19-1.47,3.24-2.28.31-.24.44-.72.75-1.26Z" transform="translate(-0.37 -0.34)"/></g></g><circle cx="10.76" cy="10.76" r="10.76"/><path class="b41bdcf2-fccd-434a-87d1-22747ffdcb81" d="M6,6.66h9.65a1,1,0,0,1,1,1v6.29a.82.82,0,0,1-.82.82H5.53a.6.6,0,0,1-.6-.6V7.71A1,1,0,0,1,6,6.66Z"/><polyline class="a9976f8c-b5fc-43e2-95a3-016d313095ca" points="5.3 7.26 10.76 10.7 16.06 7.26"/></svg>